{
  "accessors": [
    {
      "bufferView": 2,
      "componentType": 5126,
      "count": 1261,
      "max": [
        86.33219909667969,
        16.350799560546875,
        147.03860473632813
      ],
      "min": [
        -112.59919738769531,
        -174.87179565429688,
        -76.06780242919922
      ],
      "type": "VEC3"
    },
    {
      "bufferView": 2,
      "byteOffset": 15132,
      "componentType": 5126,
      "count": 1261,
      "max": [
        0.9991787672042847,
        0.9991731643676758,
        0.9997803568840027
      ],
      "min": [
        -0.9983530640602112,
        -0.9984152317047119,
        -0.9974815249443054
      ],
      "type": "VEC3"
    },
    {
      "bufferView": 1,
      "componentType": 5126,
      "count": 1261,
      "max": [
        0.9848999977111816,
        0.9950000047683716
      ],
      "min": [
        0.009999999776482582,
        0.009999999776482582
      ],
      "type": "VEC2"
    },
    {
      "bufferView": 0,
      "componentType": 5125,
      "count": 3918,
      "type": "SCALAR"
    },
    {
      "bufferView": 2,
      "byteOffset": 30264,
      "componentType": 5126,
      "count": 897,
      "max": [
        122.00810241699219,
        -57.068199157714844,
        180.5063018798828
      ],
      "min": [
        -163.93539428710938,
        -208.30349731445313,
        -75.44999694824219
      ],
      "type": "VEC3"
    },
    {
      "bufferView": 2,
      "byteOffset": 41028,
      "componentType": 5126,
      "count": 897,
      "max": [
        0.9995158910751343,
        0.99119633436203,
        0.9957324862480164
      ],
      "min": [
        -0.9995157122612,
        -0.9965407252311707,
        -0.9928838014602661
      ],
      "type": "VEC3"
    },
    {
      "bufferView": 1,
      "byteOffset": 10088,
      "componentType": 5126,
      "count": 897,
      "max": [
        0.9894999861717224,
        0.9921000003814697
      ],
      "min": [
        0.007899999618530273,
        0.010599999688565731
      ],
      "type": "VEC2"
    },
    {
      "bufferView": 0,
      "byteOffset": 15672,
      "componentType": 5125,
      "count": 2748,
      "type": "SCALAR"
    },
    {
      "bufferView": 2,
      "byteOffset": 51792,
      "componentType": 5126,
      "count": 230,
      "max": [
        179.97669982910156,
        99.4218978881836,
        207.96490478515625
      ],
      "min": [
        -178.40049743652344,
        -249.55239868164063,
        -86.22309875488281
      ],
      "type": "VEC3"
    },
    {
      "bufferView": 2,
      "byteOffset": 54552,
      "componentType": 5126,
      "count": 230,
      "max": [
        0.9907989501953125,
        0.9952515959739685,
        1.0
      ],
      "min": [
        -0.9937875866889954,
        -0.999008059501648,
        -0.997718870639801
      ],
      "type": "VEC3"
    },
    {
      "bufferView": 1,
      "byteOffset": 17264,
      "componentType": 5126,
      "count": 230,
      "max": [
        0.9710999727249146,
        0.9886999726295471
      ],
      "min": [
        0.012600000016391277,
        0.01850000023841858
      ],
      "type": "VEC2"
    },
    {
      "bufferView": 0,
      "byteOffset": 26664,
      "componentType": 5125,
      "count": 594,
      "type": "SCALAR"
    }
  ],
  "asset": {
    "extras": {
      "author": "lucak (https://sketchfab.com/lucak)",
      "license": "CC-BY-4.0 (http://creativecommons.org/licenses/by/4.0/)",
      "source": "https://sketchfab.com/3d-models/soul-stealer-bard-fan-art-63d7bfb5e56a44a2a9cdc855137ba16c",
      "title": "Soul Stealer Bard fan art"
    },
    "generator": "Sketchfab-12.68.0",
    "version": "2.0"
  },
  "bufferViews": [
    {
      "buffer": 0,
      "byteLength": 29040,
      "name": "floatBufferViews",
      "target": 34963
    },
    {
      "buffer": 0,
      "byteLength": 19104,
      "byteOffset": 29040,
      "byteStride": 8,
      "name": "floatBufferViews",
      "target": 34962
    },
    {
      "buffer": 0,
      "byteLength": 57312,
      "byteOffset": 48144,
      "byteStride": 12,
      "name": "floatBufferViews",
      "target": 34962
    }
  ],
  "buffers": [
    {
      "byteLength": 105456,
      "uri": "scene.bin"
    }
  ],
  "extensionsUsed": [
    "KHR_materials_unlit"
  ],
  "images": [
    {
      "uri": "textures/default_baseColor.png"
    },
    {
      "uri": "textures/default1_baseColor.png"
    },
    {
      "uri": "textures/default2_baseColor.png"
    }
  ],
  "materials": [
    {
      "doubleSided": true,
      "extensions": {
        "KHR_materials_unlit": {}
      },
      "name": "default",
      "pbrMetallicRoughness": {
        "baseColorTexture": {
          "index": 0
        },
        "metallicFactor": 0.0
      }
    },
    {
      "alphaMode": "BLEND",
      "doubleSided": true,
      "extensions": {
        "KHR_materials_unlit": {}
      },
      "name": "default1",
      "pbrMetallicRoughness": {
        "baseColorTexture": {
          "index": 1
        },
        "metallicFactor": 0.0
      }
    },
    {
      "alphaMode": "BLEND",
      "doubleSided": true,
      "extensions": {
        "KHR_materials_unlit": {}
      },
      "name": "default2",
      "pbrMetallicRoughness": {
        "baseColorTexture": {
          "index": 2
        },
        "metallicFactor": 0.0
      }
    }
  ],
  "meshes": [
    {
      "name": "Object_0",
      "primitives": [
        {
          "attributes": {
            "NORMAL": 1,
            "POSITION": 0,
            "TEXCOORD_0": 2
          },
          "indices": 3,
          "material": 0,
          "mode": 4
        }
      ]
    },
    {
      "name": "Object_1",
      "primitives": [
        {
          "attributes": {
            "NORMAL": 5,
            "POSITION": 4,
            "TEXCOORD_0": 6
          },
          "indices": 7,
          "material": 1,
          "mode": 4
        }
      ]
    },
    {
      "name": "Object_2",
      "primitives": [
        {
          "attributes": {
            "NORMAL": 9,
            "POSITION": 8,
            "TEXCOORD_0": 10
          },
          "indices": 11,
          "material": 2,
          "mode": 4
        }
      ]
    }
  ],
  "nodes": [
    {
      "children": [
        1
      ],
      "matrix": [
        1.0,
        0.0,
        0.0,
        0.0,
        0.0,
        2.220446049250313e-16,
        -1.0,
        0.0,
        0.0,
        1.0,
        2.220446049250313e-16,
        0.0,
        0.0,
        0.0,
        0.0,
        1.0
      ],
      "name": "Sketchfab_model"
    },
    {
      "children": [
        2,
        3,
        4
      ],
      "name": "ec62ff474f634ac8ad9b8b7ddefbce5e.obj.cleaner.gles"
    },
    {
      "mesh": 0,
      "name": "Object_2"
    },
    {
      "mesh": 1,
      "name": "Object_3"
    },
    {
      "mesh": 2,
      "name": "Object_4"
    }
  ],
  "samplers": [
    {
      "magFilter": 9729,
      "minFilter": 9987,
      "wrapS": 10497,
      "wrapT": 10497
    }
  ],
  "scene": 0,
  "scenes": [
    {
      "name": "Sketchfab_Scene",
      "nodes": [
        0
      ]
    }
  ],
  "textures": [
    {
      "sampler": 0,
      "source": 0
    },
    {
      "sampler": 0,
      "source": 1
    },
    {
      "sampler": 0,
      "source": 2
    }
  ]
}
