# Blender 4.1.1
# www.blender.org
mtllib untitled.mtl
o Cube
v 1.000000 1.000000 1.000000
v 1.000000 1.000000 -1.000000
v 1.000000 -1.000000 1.000000
v 1.000000 -1.000000 -1.000000
v -1.000000 1.000000 1.000000
v -1.000000 1.000000 -1.000000
v -1.000000 -1.000000 1.000000
v -1.000000 -1.000000 -1.000000
vn -0.0000 -0.0000 1.0000
vn -0.0000 -1.0000 -0.0000
vn -1.0000 -0.0000 -0.0000
vn -0.0000 -0.0000 -1.0000
vn 1.0000 -0.0000 -0.0000
vn -0.0000 1.0000 -0.0000
vt 0.249805 0.336246
vt 0.249805 0.660792
vt 0.000261 0.660792
vt 0.000261 0.336246
vt 0.755554 0.336246
vt 0.998438 0.336246
vt 0.998438 0.660792
vt 0.755554 0.660792
vt 0.497129 1.000147
vt 0.249805 1.000147
vt 0.497129 0.660792
vt 0.497129 0.336246
vt 0.249805 -0.000147
vt 0.497129 -0.000147
s 0
usemtl Material
f 1/1/1 5/2/1 7/3/1 3/4/1
f 4/5/2 3/6/2 7/7/2 8/8/2
f 8/9/3 7/10/3 5/2/3 6/11/3
f 6/11/4 2/12/4 4/5/4 8/8/4
f 2/12/5 1/1/5 3/13/5 4/14/5
f 6/11/6 5/2/6 1/1/6 2/12/6
